<svg 
  width="168" 
  height="42" 
  viewBox="0 0 168 42" 
  fill="none" 
  xmlns="http://www.w3.org/2000/svg">
  
<path d="M47.104 34.288C45.2053 34.288 43.5093 33.9253 42.016 33.2C40.544 32.4747 39.392 31.4613 38.56 30.16C37.728 28.8587 37.312 27.376 37.312 25.712V19.824C37.312 18.16 37.7173 16.688 38.528 15.408C39.36 14.1067 40.5013 13.104 41.952 12.4C43.4027 11.6747 45.0667 11.312 46.944 11.312C48.8213 11.312 50.4853 11.6 51.936 12.176C53.408 12.7307 54.5493 13.5093 55.36 14.512C56.1707 15.5147 56.576 16.6667 56.576 17.968C56.576 18.7573 56.3093 19.376 55.776 19.824C55.264 20.272 54.5707 20.496 53.696 20.496C53.2693 20.496 52.8 20.432 52.288 20.304C52.3307 19.792 52.352 19.2907 52.352 18.8C52.352 17.6693 51.8507 16.752 50.848 16.048C49.8453 15.344 48.544 14.992 46.944 14.992C45.3653 14.992 44.0747 15.44 43.072 16.336C42.0907 17.232 41.6 18.3947 41.6 19.824V25.712C41.6 27.1413 42.112 28.3147 43.136 29.232C44.16 30.1493 45.4827 30.608 47.104 30.608C48.6827 30.608 49.9627 30.2453 50.944 29.52C51.9467 28.7733 52.448 27.8133 52.448 26.64V25.648H49.696C48.8853 25.648 48.224 25.3387 47.712 24.72C47.2 24.08 46.944 23.2587 46.944 22.256H54.72C55.3173 22.256 55.7973 22.4373 56.16 22.8C56.5227 23.1627 56.704 23.6427 56.704 24.24V26.736C56.704 28.208 56.2987 29.52 55.488 30.672C54.6773 31.8027 53.536 32.688 52.064 33.328C50.6133 33.968 48.96 34.288 47.104 34.288ZM62.1288 34.288C61.2114 34.1813 60.4861 33.8613 59.9528 33.328C59.4408 32.7947 59.1848 32.1227 59.1848 31.312C59.1848 30.6933 59.3341 30.0533 59.6328 29.392L66.9608 12.72C67.3661 11.7813 68.0701 11.312 69.0728 11.312C70.0541 11.312 70.7474 11.7813 71.1528 12.72L78.4808 29.392C78.7794 30.096 78.9288 30.736 78.9288 31.312C78.9288 32.1227 78.6621 32.7947 78.1288 33.328C77.6168 33.8613 76.8914 34.1813 75.9528 34.288L73.2648 28.208H64.8488L62.1288 34.288ZM71.9528 24.56L68.4328 15.792L68.0488 15.952L68.8168 17.936L66.1288 24.56H71.9528ZM82.0443 14.512C82.0443 13.5307 82.4283 12.752 83.1963 12.176C83.9643 11.5787 85.0096 11.28 86.3323 11.28L93.0523 28.176L92.3163 30.192L92.6363 30.32L99.8363 11.312C101.138 11.312 102.172 11.6107 102.94 12.208C103.73 12.784 104.124 13.5627 104.124 14.544V34.288C101.33 34.288 99.9323 33.2427 99.9323 31.152V20.912L101.02 17.968L100.668 17.84L94.8123 33.136C94.6629 33.4773 94.4283 33.7547 94.1083 33.968C93.8096 34.1813 93.4683 34.288 93.0843 34.288C92.7003 34.288 92.3483 34.1813 92.0283 33.968C91.7296 33.7547 91.5056 33.4667 91.3563 33.104L85.5003 17.808L85.1483 17.936L86.2043 20.88V31.152C86.2043 33.2427 84.8176 34.288 82.0443 34.288V14.512ZM107.888 13.552C107.888 13.0187 108.091 12.56 108.496 12.176C108.923 11.792 109.435 11.6 110.032 11.6H124.304C124.304 12.88 124.08 13.8187 123.632 14.416C123.205 14.992 122.501 15.28 121.52 15.28H112.176V20.848H120.688C120.688 22.128 120.464 23.0667 120.016 23.664C119.589 24.24 118.885 24.528 117.904 24.528H112.176V30.32H122.192C123.152 30.32 123.845 30.6187 124.272 31.216C124.72 31.792 124.944 32.72 124.944 34H110.032C109.435 34 108.923 33.8187 108.496 33.456C108.091 33.072 107.888 32.6027 107.888 32.048V13.552ZM128.684 14.512C128.684 13.5093 129.058 12.7307 129.804 12.176C130.551 11.6 131.607 11.312 132.972 11.312V31.088C132.972 32.112 132.599 32.9013 131.852 33.456C131.106 34.0107 130.05 34.288 128.684 34.288V14.512ZM138.637 34C138.039 34 137.559 33.84 137.197 33.52C136.855 33.1787 136.685 32.7307 136.685 32.176C136.685 31.664 136.813 31.248 137.069 30.928L151.341 14.096L151.053 13.872L149.837 15.248H140.493C139.49 15.248 138.722 14.9387 138.189 14.32C137.677 13.7013 137.421 12.7947 137.421 11.6H154.477C155.117 11.6 155.597 11.76 155.917 12.08C156.258 12.3787 156.429 12.8267 156.429 13.424C156.429 13.936 156.301 14.352 156.045 14.672L141.901 31.472L142.189 31.728L143.405 30.352H153.485C154.466 30.352 155.213 30.6613 155.725 31.28C156.258 31.8987 156.525 32.8053 156.525 34H138.637ZM160.278 14.512C160.278 13.5093 160.651 12.7307 161.398 12.176C162.145 11.6 163.201 11.312 164.566 11.312V31.088C164.566 32.112 164.193 32.9013 163.446 33.456C162.699 34.0107 161.643 34.288 160.278 34.288V14.512Z" fill="#5995fd"/>
<path d="M8.955 28.5556L4.5 33.2222C4.005 33.6889 3.345 34 2.625 34C1.92881 34 1.26113 33.7132 0.768845 33.2027C0.276562 32.6922 0 31.9998 0 31.2778V30.8889L1.5 19.4089C1.815 15.8156 4.71 13 8.25 13H21.75C25.29 13 28.185 15.8156 28.5 19.4089L30 30.8889V31.2778C30 31.9998 29.7234 32.6922 29.2312 33.2027C28.7389 33.7132 28.0712 34 27.375 34C26.655 34 25.995 33.6889 25.5 33.2222L21.045 28.5556H8.955ZM7.5 16.1111V19.2222H4.5V20.7778H7.5V23.8889H9V20.7778H12V19.2222H9V16.1111H7.5ZM21.75 16.1111C21.4516 16.1111 21.1655 16.234 20.9545 16.4528C20.7435 16.6716 20.625 16.9684 20.625 17.2778C20.625 17.5872 20.7435 17.8839 20.9545 18.1027C21.1655 18.3215 21.4516 18.4444 21.75 18.4444C22.0484 18.4444 22.3345 18.3215 22.5455 18.1027C22.7565 17.8839 22.875 17.5872 22.875 17.2778C22.875 16.9684 22.7565 16.6716 22.5455 16.4528C22.3345 16.234 22.0484 16.1111 21.75 16.1111ZM19.125 18.8333C18.8266 18.8333 18.5405 18.9563 18.3295 19.175C18.1185 19.3938 18 19.6906 18 20C18 20.3094 18.1185 20.6062 18.3295 20.825C18.5405 21.0437 18.8266 21.1667 19.125 21.1667C19.4234 21.1667 19.7095 21.0437 19.9205 20.825C20.1315 20.6062 20.25 20.3094 20.25 20C20.25 19.6906 20.1315 19.3938 19.9205 19.175C19.7095 18.9563 19.4234 18.8333 19.125 18.8333V18.8333ZM24.375 18.8333C24.0766 18.8333 23.7905 18.9563 23.5795 19.175C23.3685 19.3938 23.25 19.6906 23.25 20C23.25 20.3094 23.3685 20.6062 23.5795 20.825C23.7905 21.0437 24.0766 21.1667 24.375 21.1667C24.6734 21.1667 24.9595 21.0437 25.1705 20.825C25.3815 20.6062 25.5 20.3094 25.5 20C25.5 19.6906 25.3815 19.3938 25.1705 19.175C24.9595 18.9563 24.6734 18.8333 24.375 18.8333ZM21.75 21.5556C21.4516 21.5556 21.1655 21.6785 20.9545 21.8973C20.7435 22.1161 20.625 22.4128 20.625 22.7222C20.625 23.0316 20.7435 23.3284 20.9545 23.5472C21.1655 23.766 21.4516 23.8889 21.75 23.8889C22.0484 23.8889 22.3345 23.766 22.5455 23.5472C22.7565 23.3284 22.875 23.0316 22.875 22.7222C22.875 22.4128 22.7565 22.1161 22.5455 21.8973C22.3345 21.6785 22.0484 21.5556 21.75 21.5556Z" fill="#5995fd"/>
</svg>
